<mxfile host="app.diagrams.net" agent="Mozilla/5.0 (Windows NT 10.0; Win64; x64) AppleWebKit/537.36 (KHTML, like Gecko) Chrome/128.0.0.0 Safari/537.36 OPR/114.0.0.0" version="24.8.4">
  <diagram id="C5RBs43oDa-KdzZeNtuy" name="Page-1">
    <mxGraphModel dx="961" dy="575" grid="1" gridSize="10" guides="1" tooltips="1" connect="1" arrows="1" fold="1" page="1" pageScale="1" pageWidth="827" pageHeight="1169" math="0" shadow="0">
      <root>
        <mxCell id="WIyWlLk6GJQsqaUBKTNV-0" />
        <mxCell id="WIyWlLk6GJQsqaUBKTNV-1" parent="WIyWlLk6GJQsqaUBKTNV-0" />
        <mxCell id="fiRXjtXLHK9T1CaBb8wy-5" style="edgeStyle=orthogonalEdgeStyle;rounded=0;orthogonalLoop=1;jettySize=auto;html=1;entryX=0;entryY=0.5;entryDx=0;entryDy=0;endArrow=open;endFill=0;" edge="1" parent="WIyWlLk6GJQsqaUBKTNV-1" source="aFLDtuvDnDbxKiJ6OyYj-2" target="aFLDtuvDnDbxKiJ6OyYj-3">
          <mxGeometry relative="1" as="geometry" />
        </mxCell>
        <mxCell id="fiRXjtXLHK9T1CaBb8wy-12" style="edgeStyle=orthogonalEdgeStyle;rounded=0;orthogonalLoop=1;jettySize=auto;html=1;entryX=0;entryY=0.5;entryDx=0;entryDy=0;endArrow=open;endFill=0;" edge="1" parent="WIyWlLk6GJQsqaUBKTNV-1" source="aFLDtuvDnDbxKiJ6OyYj-2" target="aFLDtuvDnDbxKiJ6OyYj-5">
          <mxGeometry relative="1" as="geometry">
            <Array as="points">
              <mxPoint x="240" y="260" />
            </Array>
          </mxGeometry>
        </mxCell>
        <mxCell id="aFLDtuvDnDbxKiJ6OyYj-2" value="Agendada&lt;div&gt;entry/enviarConfirmacao&lt;/div&gt;&lt;div&gt;&lt;span style=&quot;background-color: initial;&quot;&gt;1 dia antes data enviarLembrete&lt;/span&gt;&lt;/div&gt;" style="rounded=1;whiteSpace=wrap;html=1;" parent="WIyWlLk6GJQsqaUBKTNV-1" vertex="1">
          <mxGeometry x="180" y="100" width="140" height="60" as="geometry" />
        </mxCell>
        <mxCell id="fiRXjtXLHK9T1CaBb8wy-9" style="edgeStyle=orthogonalEdgeStyle;rounded=0;orthogonalLoop=1;jettySize=auto;html=1;entryX=0;entryY=0.5;entryDx=0;entryDy=0;endArrow=open;endFill=0;" edge="1" parent="WIyWlLk6GJQsqaUBKTNV-1" source="aFLDtuvDnDbxKiJ6OyYj-3" target="aFLDtuvDnDbxKiJ6OyYj-4">
          <mxGeometry relative="1" as="geometry" />
        </mxCell>
        <mxCell id="aFLDtuvDnDbxKiJ6OyYj-3" value="Em andamento" style="rounded=1;whiteSpace=wrap;html=1;" parent="WIyWlLk6GJQsqaUBKTNV-1" vertex="1">
          <mxGeometry x="410" y="100" width="120" height="60" as="geometry" />
        </mxCell>
        <mxCell id="fiRXjtXLHK9T1CaBb8wy-24" style="edgeStyle=orthogonalEdgeStyle;rounded=0;orthogonalLoop=1;jettySize=auto;html=1;endArrow=open;endFill=0;entryX=0.571;entryY=0.129;entryDx=0;entryDy=0;entryPerimeter=0;" edge="1" parent="WIyWlLk6GJQsqaUBKTNV-1" source="aFLDtuvDnDbxKiJ6OyYj-4" target="fiRXjtXLHK9T1CaBb8wy-14">
          <mxGeometry relative="1" as="geometry">
            <mxPoint x="710" y="240" as="targetPoint" />
          </mxGeometry>
        </mxCell>
        <mxCell id="aFLDtuvDnDbxKiJ6OyYj-4" value="Finalizada" style="rounded=1;whiteSpace=wrap;html=1;" parent="WIyWlLk6GJQsqaUBKTNV-1" vertex="1">
          <mxGeometry x="650" y="100" width="120" height="60" as="geometry" />
        </mxCell>
        <mxCell id="fiRXjtXLHK9T1CaBb8wy-23" style="edgeStyle=orthogonalEdgeStyle;rounded=0;orthogonalLoop=1;jettySize=auto;html=1;endArrow=open;endFill=0;entryX=0.053;entryY=0.578;entryDx=0;entryDy=0;entryPerimeter=0;" edge="1" parent="WIyWlLk6GJQsqaUBKTNV-1" source="aFLDtuvDnDbxKiJ6OyYj-5" target="fiRXjtXLHK9T1CaBb8wy-14">
          <mxGeometry relative="1" as="geometry">
            <mxPoint x="690" y="260" as="targetPoint" />
          </mxGeometry>
        </mxCell>
        <mxCell id="aFLDtuvDnDbxKiJ6OyYj-5" value="Cancelada&lt;div&gt;entry/enviarCancelamento&lt;/div&gt;" style="rounded=1;whiteSpace=wrap;html=1;" parent="WIyWlLk6GJQsqaUBKTNV-1" vertex="1">
          <mxGeometry x="395" y="230" width="150" height="60" as="geometry" />
        </mxCell>
        <mxCell id="aFLDtuvDnDbxKiJ6OyYj-14" value="Consulta" style="text;html=1;align=center;verticalAlign=middle;resizable=0;points=[];autosize=1;strokeColor=none;fillColor=none;" parent="WIyWlLk6GJQsqaUBKTNV-1" vertex="1">
          <mxGeometry x="395" width="70" height="30" as="geometry" />
        </mxCell>
        <mxCell id="aFLDtuvDnDbxKiJ6OyYj-22" style="edgeStyle=orthogonalEdgeStyle;rounded=0;orthogonalLoop=1;jettySize=auto;html=1;endArrow=open;endFill=0;" parent="WIyWlLk6GJQsqaUBKTNV-1" source="aFLDtuvDnDbxKiJ6OyYj-21" target="aFLDtuvDnDbxKiJ6OyYj-2" edge="1">
          <mxGeometry relative="1" as="geometry" />
        </mxCell>
        <mxCell id="aFLDtuvDnDbxKiJ6OyYj-21" value="" style="shape=waypoint;sketch=0;size=6;pointerEvents=1;points=[];fillColor=none;resizable=0;rotatable=0;perimeter=centerPerimeter;snapToPoint=1;" parent="WIyWlLk6GJQsqaUBKTNV-1" vertex="1">
          <mxGeometry x="240" y="50" width="20" height="20" as="geometry" />
        </mxCell>
        <mxCell id="fiRXjtXLHK9T1CaBb8wy-25" style="edgeStyle=orthogonalEdgeStyle;rounded=0;orthogonalLoop=1;jettySize=auto;html=1;endArrow=open;endFill=0;entryX=0.605;entryY=0.957;entryDx=0;entryDy=0;entryPerimeter=0;" edge="1" parent="WIyWlLk6GJQsqaUBKTNV-1" source="fiRXjtXLHK9T1CaBb8wy-0" target="fiRXjtXLHK9T1CaBb8wy-14">
          <mxGeometry relative="1" as="geometry">
            <mxPoint x="710" y="280" as="targetPoint" />
          </mxGeometry>
        </mxCell>
        <mxCell id="fiRXjtXLHK9T1CaBb8wy-0" value="Reagendada&lt;div&gt;entry/enviarMensagem&lt;/div&gt;" style="rounded=1;whiteSpace=wrap;html=1;" vertex="1" parent="WIyWlLk6GJQsqaUBKTNV-1">
          <mxGeometry x="395" y="328" width="140" height="60" as="geometry" />
        </mxCell>
        <mxCell id="fiRXjtXLHK9T1CaBb8wy-4" value="reagendar" style="text;html=1;align=center;verticalAlign=middle;resizable=0;points=[];autosize=1;strokeColor=none;fillColor=none;" vertex="1" parent="WIyWlLk6GJQsqaUBKTNV-1">
          <mxGeometry x="315" y="340" width="80" height="30" as="geometry" />
        </mxCell>
        <mxCell id="fiRXjtXLHK9T1CaBb8wy-7" value="Data/Hora&lt;div&gt;AlcanÃ§ada&lt;/div&gt;" style="text;html=1;align=center;verticalAlign=middle;resizable=0;points=[];autosize=1;strokeColor=none;fillColor=none;" vertex="1" parent="WIyWlLk6GJQsqaUBKTNV-1">
          <mxGeometry x="320" y="93" width="80" height="40" as="geometry" />
        </mxCell>
        <mxCell id="fiRXjtXLHK9T1CaBb8wy-18" value="" style="ellipse;whiteSpace=wrap;html=1;aspect=fixed;" vertex="1" parent="WIyWlLk6GJQsqaUBKTNV-1">
          <mxGeometry x="705" y="255" width="10" height="10" as="geometry" />
        </mxCell>
        <mxCell id="fiRXjtXLHK9T1CaBb8wy-10" value="Finalizar Consulta" style="text;html=1;align=center;verticalAlign=middle;resizable=0;points=[];autosize=1;strokeColor=none;fillColor=none;" vertex="1" parent="WIyWlLk6GJQsqaUBKTNV-1">
          <mxGeometry x="530" y="100" width="120" height="30" as="geometry" />
        </mxCell>
        <mxCell id="fiRXjtXLHK9T1CaBb8wy-11" style="edgeStyle=orthogonalEdgeStyle;rounded=0;orthogonalLoop=1;jettySize=auto;html=1;entryX=0.007;entryY=0.617;entryDx=0;entryDy=0;entryPerimeter=0;endArrow=open;endFill=0;" edge="1" parent="WIyWlLk6GJQsqaUBKTNV-1" source="aFLDtuvDnDbxKiJ6OyYj-2" target="fiRXjtXLHK9T1CaBb8wy-0">
          <mxGeometry relative="1" as="geometry">
            <Array as="points">
              <mxPoint x="240" y="365" />
            </Array>
          </mxGeometry>
        </mxCell>
        <mxCell id="fiRXjtXLHK9T1CaBb8wy-14" value="" style="shape=waypoint;sketch=0;size=6;pointerEvents=1;points=[];fillColor=none;resizable=0;rotatable=0;perimeter=centerPerimeter;snapToPoint=1;" vertex="1" parent="WIyWlLk6GJQsqaUBKTNV-1">
          <mxGeometry x="700" y="250" width="20" height="20" as="geometry" />
        </mxCell>
        <mxCell id="fiRXjtXLHK9T1CaBb8wy-13" value="cancelar" style="text;html=1;align=center;verticalAlign=middle;resizable=0;points=[];autosize=1;strokeColor=none;fillColor=none;" vertex="1" parent="WIyWlLk6GJQsqaUBKTNV-1">
          <mxGeometry x="325" y="230" width="70" height="30" as="geometry" />
        </mxCell>
      </root>
    </mxGraphModel>
  </diagram>
</mxfile>
